 <svg width="57" height="55" viewBox="0 0 57 55" fill="none" xmlns="http://www.w3.org/2000/svg">
                                <path d="M45.7838 31.9007C45.7838 20.6343 38.9339 7.54661 30.4843 2.6685C26.6277 0.442004 23.105 0.311161 20.4142 1.89692V1.89605L17.0906 3.82217L17.091 3.82304C14.4311 5.29839 12.5541 8.41643 11.9217 12.826L9.43174 18.733C8.27416 21.4785 6.24719 23.7685 3.66207 25.2508L2.92744 25.672L2.92831 25.6737C1.1552 26.4722 0.0119629 28.6705 0.0119629 31.8859C0.0119629 37.39 3.35822 43.7839 7.4865 46.1673C9.46826 47.3114 11.2683 47.3205 12.6063 46.4146L12.6072 46.4168C15.3918 44.821 18.6511 44.2607 21.8087 44.8354L27.7805 45.9226C31.3741 47.7522 34.6404 47.7391 37.1599 46.2008L37.1603 46.2016L40.2497 44.4094V44.409C43.6303 42.6189 45.7838 38.2168 45.7838 31.9007Z" fill="#E9E9E9"/>
                                <path d="M13.9143 44.2833C9.21614 41.5712 5.4078 34.2945 5.4078 28.0306C5.4078 25.9819 5.81597 24.297 6.5293 23.0503C5.68035 23.9023 4.71881 24.6447 3.66251 25.2507L2.92788 25.6719L2.92875 25.6741C1.1552 26.4722 0.0119629 28.6704 0.0119629 31.8858C0.0119629 37.3899 3.35822 43.7838 7.48606 46.1672C9.46826 47.3113 11.2683 47.3205 12.6059 46.4146L12.6072 46.4167C13.6213 45.8356 14.6985 45.3935 15.8104 45.0918C15.2005 44.9253 14.5663 44.6602 13.9143 44.2833Z" fill="#E9662C"/>
                                <path d="M45.7837 31.9007C45.7837 20.6343 38.9338 7.54661 30.4842 2.6685C26.6276 0.442004 23.1049 0.311161 20.4141 1.89692V1.89605L17.0905 3.82217L17.0909 3.82304C13.7855 5.65657 11.6873 10.0252 11.6873 16.2596C11.6873 27.5259 18.5371 40.6137 26.9867 45.4918C30.8924 47.747 34.456 47.8517 37.1598 46.2008V46.2016L40.2496 44.409H40.2492C43.6302 42.6189 45.7837 38.2168 45.7837 31.9007Z" fill="#E9662C"/>
                                <path d="M15.1848 14.2344C15.1848 25.5008 22.0347 38.5885 30.4842 43.4666C38.9338 48.3452 45.7837 43.1667 45.7837 31.9007C45.7837 20.6348 38.9338 7.54668 30.4842 2.66856C22.0347 -2.20999 15.1848 2.9685 15.1848 14.2344Z" fill="#EBAF3C"/>
                                <path d="M18.9602 16.4141C18.9602 24.9006 24.1196 34.7586 30.4843 38.433C36.8487 42.1075 42.0085 38.2074 42.0085 29.7209C42.0085 21.2348 36.8487 11.3769 30.4843 7.70244C24.1196 4.02755 18.9602 7.92804 18.9602 16.4141Z" fill="#E9662C"/>
                                <path d="M21.3484 15.9487C20.5334 15.9487 19.7374 16.0257 18.9628 16.1643C18.9615 16.2474 18.9602 16.33 18.9602 16.4139C18.9602 24.9003 24.1196 34.7583 30.4843 38.4328C30.6604 38.5345 30.8356 38.6292 31.0094 38.7197C33.3455 36.3019 34.7852 33.013 34.7852 29.3859C34.7852 21.9649 28.7695 15.9487 21.3484 15.9487Z" fill="#FFD800"/>
                                <path d="M56.1794 40.8035L53.2639 38.5991L56.1794 33.0286C57.2574 30.969 57.2574 28.6386 56.1794 27.8235C56.0872 27.7536 55.9894 27.6984 55.8881 27.6549L52.5988 25.7488C51.5208 24.9337 49.7729 25.9426 48.6948 28.0026L45.9889 33.1733L42.8613 31.3676C42.7687 31.2976 42.6709 31.2424 42.5696 31.1989L42.5648 31.1963V31.1968C41.4837 30.7403 39.9432 31.744 38.9599 33.6228C37.8819 35.6824 37.8819 38.0127 38.9599 38.8278L41.8758 41.0321L38.9599 46.6027C37.8819 48.6627 37.8819 50.9926 38.9599 51.8077C39.0042 51.8412 42.5409 53.8825 42.5409 53.8825C43.6189 54.6975 45.3664 53.6882 46.4444 51.6286L49.1704 46.4206L52.2758 48.2619C53.3539 49.077 55.1013 48.068 56.1794 46.0085C57.2574 43.9489 57.2574 41.6185 56.1794 40.8035Z" fill="#B5292A"/>
                                <path d="M53.2639 38.5995L56.1794 33.0289C57.2575 30.9693 57.2575 28.639 56.1794 27.8239C55.1014 27.0089 53.3539 28.0182 52.2759 30.0778L49.36 35.6488L46.4445 33.4445C45.3664 32.6294 43.619 33.6383 42.5409 35.6984C41.4629 37.7579 41.4629 40.0883 42.5409 40.9029L45.4564 43.1072L42.5409 48.6783C41.4629 50.7378 41.4629 53.0682 42.5409 53.8828C43.619 54.6979 45.3664 53.689 46.4445 51.6294L49.36 46.0584L52.2759 48.2623C53.3539 49.0773 55.1014 48.0684 56.1794 46.0088C57.2575 43.9492 57.2575 41.6189 56.1794 40.8038L53.2639 38.5995Z" fill="#E84C3D"/>
                            </svg>