<svg width="70" height="91" viewBox="0 0 70 91" fill="none" xmlns="http://www.w3.org/2000/svg">
<path d="M61.3184 0H7.99805C3.58775 0 0 3.58775 0 7.99805V50.6543C0 55.0646 3.58775 58.6523 7.99805 58.6523H61.3184C65.7287 58.6523 69.3164 55.0646 69.3164 50.6543V7.99805C69.3164 3.58775 65.7287 0 61.3184 0ZM55.9863 80.3359C54.5127 80.3359 53.3203 81.5284 53.3203 83.002V85.668H15.9961V83.002C15.9961 81.5284 14.8037 80.3359 13.3301 80.3359C11.8565 80.3359 10.6641 81.5284 10.6641 83.002V88.334C10.6641 89.8076 11.8565 91 13.3301 91H55.9863C57.4599 91 58.6523 89.8076 58.6523 88.334V83.002C58.6523 81.5284 57.4599 80.3359 55.9863 80.3359Z" fill="url(#paint0_linear_57_337)"/>
<path d="M43.4374 64.7655L37.3242 70.8785V50.6543C37.3242 49.1807 36.1318 47.9883 34.6582 47.9883C33.1846 47.9883 31.9922 49.1807 31.9922 50.6543V70.8785L25.879 64.7653C24.8377 63.724 23.1504 63.724 22.1091 64.7653C21.0677 65.8067 21.0677 67.4939 22.1091 68.5353L32.77 79.1961C33.8012 80.23 35.4991 80.2462 36.5465 79.1961L47.2073 68.5353C48.2487 67.4939 48.2487 65.8067 47.2073 64.7653C46.166 63.724 44.4787 63.724 43.4374 64.7655ZM13.3301 10.6641C11.8577 10.6641 10.6641 11.8577 10.6641 13.3301C10.6641 14.8024 11.8577 15.9961 13.3301 15.9961C14.8024 15.9961 15.9961 14.8024 15.9961 13.3301C15.9961 11.8577 14.8024 10.6641 13.3301 10.6641ZM13.3301 21.3281C11.8577 21.3281 10.6641 22.5218 10.6641 23.9941C10.6641 25.4665 11.8577 26.6602 13.3301 26.6602C14.8024 26.6602 15.9961 25.4665 15.9961 23.9941C15.9961 22.5218 14.8024 21.3281 13.3301 21.3281ZM13.3301 31.9922C11.8577 31.9922 10.6641 33.1859 10.6641 34.6582C10.6641 36.1306 11.8577 37.3242 13.3301 37.3242C14.8024 37.3242 15.9961 36.1306 15.9961 34.6582C15.9961 33.1859 14.8024 31.9922 13.3301 31.9922ZM13.3301 42.6562C11.8577 42.6562 10.6641 43.8499 10.6641 45.3223C10.6641 46.7946 11.8577 47.9883 13.3301 47.9883C14.8024 47.9883 15.9961 46.7946 15.9961 45.3223C15.9961 43.8499 14.8024 42.6562 13.3301 42.6562ZM55.9863 15.9961C57.4587 15.9961 58.6523 14.8024 58.6523 13.3301C58.6523 11.8577 57.4587 10.6641 55.9863 10.6641C54.514 10.6641 53.3203 11.8577 53.3203 13.3301C53.3203 14.8024 54.514 15.9961 55.9863 15.9961ZM55.9863 21.3281C54.514 21.3281 53.3203 22.5218 53.3203 23.9941C53.3203 25.4665 54.514 26.6602 55.9863 26.6602C57.4587 26.6602 58.6523 25.4665 58.6523 23.9941C58.6523 22.5218 57.4587 21.3281 55.9863 21.3281ZM55.9863 31.9922C54.514 31.9922 53.3203 33.1859 53.3203 34.6582C53.3203 36.1306 54.514 37.3242 55.9863 37.3242C57.4587 37.3242 58.6523 36.1306 58.6523 34.6582C58.6523 33.1859 57.4587 31.9922 55.9863 31.9922ZM55.9863 42.6562C54.514 42.6562 53.3203 43.8499 53.3203 45.3223C53.3203 46.7946 54.514 47.9883 55.9863 47.9883C57.4587 47.9883 58.6523 46.7946 58.6523 45.3223C58.6523 43.8499 57.4587 42.6562 55.9863 42.6562ZM46.801 27.108L30.8049 16.444C29.9849 15.8998 28.9355 15.8504 28.0685 16.3112C27.2017 16.7746 26.6602 17.678 26.6602 18.6621V39.9902C26.6602 40.9743 27.2017 41.8778 28.0687 42.3413C28.9236 42.7999 29.9783 42.7597 30.8051 42.2085L46.8012 31.5445C47.5432 31.0498 47.9885 30.2166 47.9885 29.3264C47.9885 28.4361 47.5431 27.6027 46.801 27.108Z" fill="url(#paint1_linear_57_337)"/>
<defs>
<linearGradient id="paint0_linear_57_337" x1="34.6582" y1="91" x2="34.6582" y2="0" gradientUnits="userSpaceOnUse">
<stop stop-color="#FD3A84"/>
<stop offset="1" stop-color="#FFA68D"/>
</linearGradient>
<linearGradient id="paint1_linear_57_337" x1="34.6582" y1="79.9776" x2="34.6582" y2="10.6641" gradientUnits="userSpaceOnUse">
<stop stop-color="#FFC2CC"/>
<stop offset="1" stop-color="#FFF2F4"/>
</linearGradient>
</defs>
</svg>
