 <svg width="92" height="55" viewBox="0 0 92 55" fill="none" xmlns="http://www.w3.org/2000/svg">
                                <path d="M0.125444 35.9038C0.351723 43.4557 4.84281 49.9111 11.845 52.7509C14.1164 53.6796 16.5461 54.1598 19 54.1651C23.8628 54.1537 28.5274 52.2368 31.9931 48.8257L45.0996 36.1112C45.3409 35.8772 45.6639 35.7463 46 35.7463C46.3362 35.7463 46.6591 35.8772 46.9004 36.1112L60.0067 48.8257C63.4725 52.2368 68.1372 54.1537 73.0001 54.1651C75.4541 54.16 77.8838 53.6798 80.1552 52.7509C87.1574 49.9111 91.648 43.4557 91.8746 35.904C92.0419 30.327 92.0419 24.6713 91.8746 19.0943C91.6483 11.5426 87.1573 5.08718 80.1552 2.24737C73.6874 -0.375394 66.6098 0.707918 61.2924 5.03287C61.0444 5.2354 60.73 5.33868 60.4102 5.32273C60.0905 5.30677 59.788 5.17272 59.5613 4.94651L58.0253 3.41026C57.8507 3.23572 57.6297 3.11482 57.3886 3.06185C57.1474 3.00887 56.8961 3.02603 56.6644 3.1113C56.4327 3.19657 56.2303 3.34639 56.081 3.54305C55.9317 3.73972 55.8419 3.975 55.8221 4.2211L54.6641 18.5042C54.649 18.691 54.6746 18.8789 54.7393 19.0548C54.804 19.2307 54.9061 19.3905 55.0386 19.523C55.1712 19.6555 55.3309 19.7577 55.5068 19.8223C55.6827 19.887 55.8706 19.9127 56.0574 19.8976L70.3409 18.7398C70.587 18.7199 70.8223 18.6301 71.019 18.4808C71.2156 18.3315 71.3654 18.1291 71.4507 17.8974C71.536 17.6657 71.5531 17.4144 71.5002 17.1733C71.4472 16.9321 71.3263 16.7112 71.1518 16.5365L69.4098 14.7946C69.2652 14.651 69.1568 14.4753 69.0932 14.2817C69.0296 14.0882 69.0128 13.8823 69.0441 13.681C69.0753 13.4797 69.1538 13.2887 69.2731 13.1236C69.3924 12.9584 69.5491 12.8239 69.7303 12.7309C70.8862 12.1756 72.1624 11.9175 73.4432 11.9799C74.724 12.0423 75.969 12.4233 77.0654 13.0883C78.1618 13.7533 79.075 14.6814 79.7221 15.7885C80.3693 16.8955 80.73 18.1466 80.7716 19.4282C80.9325 24.7835 80.9325 30.2155 80.7716 35.5716C80.7265 37.0608 80.2493 38.5047 79.3982 39.7276C78.5471 40.9505 77.3589 41.8995 75.9781 42.4592C74.5973 43.0188 73.0835 43.165 71.6212 42.8797C70.1589 42.5945 68.811 41.8903 67.7417 40.8527L49.8675 23.5124L31.9933 6.172C26.569 0.911004 18.8488 -0.59413 11.845 2.24624C4.8413 5.08662 0.352289 11.5414 0.125444 19.0931C-0.0418146 24.6704 -0.0418146 30.3273 0.125444 35.9038ZM11.2284 19.4282C11.2486 17.9332 11.7157 16.4784 12.5696 15.2511C13.4235 14.0237 14.6252 13.08 16.0199 12.5412C17.3965 11.9561 18.9167 11.7963 20.3849 12.0823C21.8531 12.3683 23.2022 13.087 24.2585 14.1461L37.0663 26.5709C37.1906 26.6914 37.2894 26.8357 37.3569 26.9951C37.4243 27.1546 37.4591 27.3259 37.4591 27.499C37.4591 27.6722 37.4243 27.8435 37.3569 28.0029C37.2894 28.1624 37.1906 28.3066 37.0663 28.4272L24.2583 40.8518C23.2019 41.9107 21.8529 42.6294 20.3847 42.9153C18.9165 43.2013 17.3963 43.0415 16.0197 42.4565C14.6252 41.9178 13.4237 40.9742 12.5698 39.7471C11.716 38.52 11.2488 37.0654 11.2284 35.5706C11.0683 30.2142 11.0683 24.7835 11.2284 19.4282Z" fill="url(#paint0_linear_30_18)"/>
                                <defs>
                                <linearGradient id="paint0_linear_30_18" x1="15.2205" y1="-3.28044" x2="76.7793" y2="58.2783" gradientUnits="userSpaceOnUse">
                                <stop stop-color="#2D00F7"/><stop offset="0.052" stop-color="#3B00EF"/><stop offset="0.305" stop-color="#7C00CB"/><stop offset="0.536" stop-color="#AF00AF"/><stop offset="0.736" stop-color="#D3009A"/><stop offset="0.897" stop-color="#EA008E"/><stop offset="1" stop-color="#F20089"/></linearGradient></defs>
                            </svg>