 <svg width="63" height="54" viewBox="0 0 63 54" fill="none" xmlns="http://www.w3.org/2000/svg">
                                <path d="M50.8655 47.3838H12.1347C11.5741 47.3838 11.1155 47.8424 11.1155 48.403V50.4415C11.1155 52.1232 12.4914 53.4992 14.1732 53.4992H48.827C50.5087 53.4992 51.8847 52.1232 51.8847 50.4415V48.403C51.8847 47.8424 51.4261 47.3838 50.8655 47.3838Z" fill="#023473"/>
                                <path d="M56.9808 0.499023H6.01925C3.20472 0.499023 0.923096 2.78065 0.923096 5.59518V44.3259C0.923096 47.1405 3.20472 49.4221 6.01925 49.4221H56.9808C59.7953 49.4221 62.0769 47.1405 62.0769 44.3259V5.59518C62.0769 2.78065 59.7953 0.499023 56.9808 0.499023Z" fill="#056BF1"/>
                                <path d="M48.8269 4.57617H6.01923C5.45633 4.57617 5 5.0325 5 5.5954V44.3262C5 44.8891 5.45633 45.3454 6.01923 45.3454H48.8269C49.3898 45.3454 49.8462 44.8891 49.8462 44.3262V5.5954C49.8462 5.0325 49.3898 4.57617 48.8269 4.57617Z" fill="#F1F2F2"/>
                                <path d="M55.9615 10.6916C57.6502 10.6916 59.0192 9.32258 59.0192 7.63386C59.0192 5.94515 57.6502 4.57617 55.9615 4.57617C54.2728 4.57617 52.9038 5.94515 52.9038 7.63386C52.9038 9.32258 54.2728 10.6916 55.9615 10.6916Z" fill="#124BF2"/>
                                <path d="M55.9615 19.8644C57.6502 19.8644 59.0192 18.4954 59.0192 16.8067C59.0192 15.118 57.6502 13.749 55.9615 13.749C54.2728 13.749 52.9038 15.118 52.9038 16.8067C52.9038 18.4954 54.2728 19.8644 55.9615 19.8644Z" fill="#124BF2"/>
                                <path d="M55.9615 28.0187C57.6502 28.0187 59.0192 26.6497 59.0192 24.961C59.0192 23.2723 57.6502 21.9033 55.9615 21.9033C54.2728 21.9033 52.9038 23.2723 52.9038 24.961C52.9038 26.6497 54.2728 28.0187 55.9615 28.0187Z" fill="#124BF2"/>
                                <path d="M58 33.1143H53.923C53.3625 33.1143 52.9038 33.5729 52.9038 34.1335C52.9038 34.6941 53.3625 35.1527 53.923 35.1527H58C58.5605 35.1527 59.0192 34.6941 59.0192 34.1335C59.0192 33.5729 58.5605 33.1143 58 33.1143Z" fill="white"/>
                                <path d="M58 37.1914H53.923C53.3625 37.1914 52.9038 37.6501 52.9038 38.2106C52.9038 38.7712 53.3625 39.2299 53.923 39.2299H58C58.5605 39.2299 59.0192 38.7712 59.0192 38.2106C59.0192 37.6501 58.5605 37.1914 58 37.1914Z" fill="white"/>
                                <path d="M58 41.2681H53.923C53.3625 41.2681 52.9038 41.7267 52.9038 42.2873C52.9038 42.8479 53.3625 43.3065 53.923 43.3065H58C58.5605 43.3065 59.0192 42.8479 59.0192 42.2873C59.0192 41.7267 58.5605 41.2681 58 41.2681Z" fill="white"/>
                                <path d="M31.5713 19.9968L21.114 13.0253C20.5738 12.6584 19.9113 12.6278 19.3405 12.9336C18.6678 13.3005 18.2397 14.0649 18.2397 14.9313V28.8642C18.2397 29.7305 18.6576 30.5051 19.3405 30.8618C19.5953 30.9943 19.8705 31.0657 20.1457 31.0657C20.4821 31.0657 20.8082 30.9638 21.1038 30.7701L31.5611 23.7986C32.1522 23.4011 32.509 22.6876 32.509 21.8926C32.509 21.0976 32.1522 20.3842 31.5611 19.9867L31.5713 19.9968Z" fill="#D81D69"/>
                                <path d="M39.7251 19.9968L29.2678 13.0253C28.7276 12.6584 28.0651 12.6278 27.4943 12.9336C26.8216 13.3005 26.3936 14.0649 26.3936 14.9313V28.8642C26.3936 29.7305 26.8114 30.5051 27.4943 30.8618C27.7491 30.9943 28.0243 31.0657 28.2995 31.0657C28.6359 31.0657 28.962 30.9638 29.2576 30.7701L39.7149 23.7986C40.3061 23.4011 40.6628 22.6876 40.6628 21.8926C40.6628 21.0976 40.3061 20.3842 39.7149 19.9867L39.7251 19.9968Z" fill="#F21B69"/>
                                <path d="M42.7116 37.1913H12.1347C11.5741 37.1913 11.1155 36.7326 11.1155 36.1721C11.1155 35.6115 11.5741 35.1528 12.1347 35.1528H42.7116C43.2722 35.1528 43.7309 35.6115 43.7309 36.1721C43.7309 36.7326 43.2722 37.1913 42.7116 37.1913Z" fill="#F21B69"/>
                                <path d="M14.173 40.2491C13.6125 40.2491 13.1538 39.7904 13.1538 39.2298V33.1144C13.1538 32.5539 13.6125 32.0952 14.173 32.0952C14.7336 32.0952 15.1923 32.5539 15.1923 33.1144V39.2298C15.1923 39.7904 14.7336 40.2491 14.173 40.2491Z" fill="#D81D69"/>
                            </svg>