 <svg width="61" height="54" viewBox="0 0 61 54" fill="none" xmlns="http://www.w3.org/2000/svg">
                                <path d="M59.8954 40.6878L48.5376 31.223C47.9735 30.7498 47.1861 30.6551 46.5235 30.9618C45.8572 31.276 45.4332 31.9423 45.4332 32.6768V38.3557H42.2644C39.6369 38.3557 37.2367 37.023 35.8435 34.7969L23.5847 15.1859C20.802 10.7299 16.0015 8.06836 10.7428 8.06836H0.00219727V15.6402H10.7428C13.3703 15.6402 15.7705 16.9728 17.1638 19.1989L29.4225 38.81C32.209 43.266 37.0095 45.9275 42.2644 45.9275H45.4332V51.6064C45.4332 52.3409 45.8572 53.0072 46.5235 53.3214C46.7772 53.4388 47.0536 53.4993 47.3261 53.4993C47.7615 53.4993 48.1931 53.3517 48.5376 53.0602L59.8954 43.5954C60.3308 43.2357 60.5768 42.7019 60.5768 42.1416C60.5768 41.5813 60.3308 41.0475 59.8954 40.6878Z" fill="#FFA000"/>
                                <path d="M59.8954 10.4007L48.5376 0.935863C47.9735 0.46641 47.1861 0.367976 46.5235 0.678421C45.8572 0.98508 45.4332 1.65519 45.4332 2.38965V8.06853H42.2644C37.0057 8.06853 32.2052 10.73 29.4225 15.186L17.1675 34.7971C15.7743 37.0232 13.3703 38.3559 10.7428 38.3559H0.00219727V45.9277H10.7428C15.9977 45.9277 20.7982 43.2662 23.5847 38.8102L35.8397 19.1991C37.2367 16.973 39.6369 15.6404 42.2644 15.6404H45.4332V21.3192C45.4332 22.0537 45.8572 22.7238 46.5235 23.0343C46.7772 23.1516 47.0536 23.2122 47.3261 23.2122C47.7615 23.2122 48.1931 23.0608 48.5376 22.773L59.8954 13.3082C60.3308 12.9486 60.5768 12.4148 60.5768 11.8544C60.5768 11.2941 60.3308 10.7603 59.8954 10.4007Z" fill="#FFC107"/>
                            </svg>