 <svg width="50" height="50" viewBox="0 0 50 50" fill="none" xmlns="http://www.w3.org/2000/svg">
                                <path d="M22.5825 12.2593V45.6811H1.57205C0.70383 45.6811 0 44.9772 0 44.109V12.2593H22.5825Z" fill="#E9EDF4"/>
                                <path d="M22.5825 4.43018V12.259H0V6.00223C0 5.13401 0.70383 4.43018 1.57205 4.43018H22.5825Z" fill="#FFC90D"/>
                                <path d="M5.31169 9.95053C6.19886 9.95053 6.91806 9.23133 6.91806 8.34416C6.91806 7.45699 6.19886 6.73779 5.31169 6.73779C4.42452 6.73779 3.70532 7.45699 3.70532 8.34416C3.70532 9.23133 4.42452 9.95053 5.31169 9.95053Z" fill="#FFAB02"/>
                                <path d="M10.4574 9.95053C11.3446 9.95053 12.0638 9.23133 12.0638 8.34416C12.0638 7.45699 11.3446 6.73779 10.4574 6.73779C9.57027 6.73779 8.85107 7.45699 8.85107 8.34416C8.85107 9.23133 9.57027 9.95053 10.4574 9.95053Z" fill="#FFAB02"/>
                                <path d="M15.6022 9.95053C16.4894 9.95053 17.2086 9.23133 17.2086 8.34416C17.2086 7.45699 16.4894 6.73779 15.6022 6.73779C14.715 6.73779 13.9958 7.45699 13.9958 8.34416C13.9958 9.23133 14.715 9.95053 15.6022 9.95053Z" fill="#FFAB02"/>
                                <path d="M20.1398 34.3142H11.8544C11.4239 34.3142 11.075 33.9652 11.075 33.5348C11.075 33.1044 11.4239 32.7554 11.8544 32.7554H20.1398C20.5702 32.7554 20.9192 33.1044 20.9192 33.5348C20.9192 33.9652 20.5702 34.3142 20.1398 34.3142Z" fill="#D2DBEA"/>
                                <path d="M20.1398 38.5217H4.35632C3.92589 38.5217 3.5769 38.1727 3.5769 37.7423C3.5769 37.3119 3.92589 36.9629 4.35632 36.9629H20.1398C20.5702 36.9629 20.9192 37.3119 20.9192 37.7423C20.9192 38.1727 20.5702 38.5217 20.1398 38.5217Z" fill="#D2DBEA"/>
                                <path d="M20.1398 42.7292H4.35632C3.92589 42.7292 3.5769 42.3802 3.5769 41.9498C3.5769 41.5194 3.92589 41.1704 4.35632 41.1704H20.1398C20.5702 41.1704 20.9192 41.5194 20.9192 41.9498C20.9192 42.3802 20.5702 42.7292 20.1398 42.7292Z" fill="#D2DBEA"/>
                                <path d="M20.1384 16.0708V28.5052C20.1384 29.4333 19.3942 30.1776 18.466 30.1776H6.03178C5.1035 30.1776 4.35938 29.4333 4.35938 28.5052V16.0708C4.35938 15.1428 5.1035 14.3984 6.03178 14.3984H18.466C19.3942 14.3984 20.1384 15.1428 20.1384 16.0708Z" fill="#8CC2FE"/>
                                <path d="M14.5318 25.4619L14.0896 24.3004H10.3276L9.88576 25.4872C9.71298 25.9501 9.5657 26.2626 9.44354 26.4245C9.32176 26.5865 9.12157 26.6675 8.84414 26.6675C8.60818 26.6675 8.40001 26.5813 8.21924 26.4087C8.03809 26.2363 7.94751 26.0405 7.94751 25.8217C7.94751 25.6955 7.96844 25.565 8.01068 25.4303C8.05293 25.2958 8.12219 25.1083 8.21924 24.8686L10.5864 18.8589C10.6534 18.6864 10.7344 18.4791 10.8292 18.2371C10.924 17.9952 11.0248 17.7943 11.1321 17.6343C11.2395 17.4744 11.3807 17.345 11.5553 17.2461C11.73 17.1473 11.9454 17.0977 12.2023 17.0977C12.463 17.0977 12.6811 17.1473 12.8557 17.2461C13.03 17.345 13.1712 17.4723 13.2786 17.628C13.3859 17.7836 13.4765 17.9511 13.5499 18.1298C13.6237 18.3088 13.7174 18.5476 13.8308 18.8464L16.2485 24.8179C16.4381 25.2725 16.5328 25.6029 16.5328 25.8091C16.5328 26.0238 16.4434 26.2205 16.2645 26.3992C16.0857 26.5781 15.8699 26.6675 15.6176 26.6675C15.4699 26.6675 15.3439 26.6413 15.2385 26.5887C15.1335 26.536 15.0452 26.4647 14.9736 26.3741C14.9021 26.2835 14.8252 26.1448 14.743 25.9574C14.6612 25.7701 14.5904 25.605 14.5318 25.4619ZM10.8197 22.8926H13.5849L12.1897 19.0736L10.8197 22.8926Z" fill="black"/>
                                <path d="M49.103 12.2588V42.8351C49.103 44.4071 47.8296 45.6806 46.2575 45.6806H26.5127V12.2588H49.103Z" fill="#E9EDF4"/>
                                <path d="M49.103 6.00223V12.259H26.5127V4.43018H47.531C48.3992 4.43018 49.103 5.13401 49.103 6.00223Z" fill="#F14F4A"/>
                                <path d="M44.4931 34.3142H28.7096C28.2792 34.3142 27.9302 33.9652 27.9302 33.5348C27.9302 33.1044 28.2792 32.7554 28.7096 32.7554H44.4931C44.9235 32.7554 45.2725 33.1044 45.2725 33.5348C45.2725 33.9652 44.9235 34.3142 44.4931 34.3142Z" fill="#D2DBEA"/>
                                <path d="M44.4931 38.5217H28.7096C28.2792 38.5217 27.9302 38.1727 27.9302 37.7423C27.9302 37.3119 28.2792 36.9629 28.7096 36.9629H44.4931C44.9235 36.9629 45.2725 37.3119 45.2725 37.7423C45.2725 38.1727 44.9235 38.5217 44.4931 38.5217Z" fill="#D2DBEA"/>
                                <path d="M39.4174 42.7292H28.7096C28.2792 42.7292 27.9302 42.3802 27.9302 41.9498C27.9302 41.5194 28.2792 41.1704 28.7096 41.1704H39.4174C39.8478 41.1704 40.1968 41.5194 40.1968 41.9498C40.1968 42.3802 39.8478 42.7292 39.4174 42.7292Z" fill="#D2DBEA"/>
                                <path d="M44.4909 16.0708V28.5052C44.4909 29.4333 43.7468 30.1776 42.8185 30.1776H30.3843C29.456 30.1776 28.7119 29.4333 28.7119 28.5052V16.0708C28.7119 15.1428 29.456 14.3984 30.3843 14.3984H42.8185C43.7468 14.3984 44.4909 15.1428 44.4909 16.0708Z" fill="#8CC2FE"/>
                                <path d="M45.6602 8.34458C45.6602 8.96522 45.1599 9.46553 44.5393 9.46553H29.4224C28.8016 9.46553 28.3105 8.96522 28.3105 8.34458C28.3105 7.72394 28.8016 7.22363 29.4224 7.22363H44.5393C45.1599 7.22363 45.6602 7.72394 45.6602 8.34458Z" fill="#E23737"/>
                                <path d="M36.9145 26.5096H34.0864C33.6785 26.5096 33.387 26.418 33.2123 26.235C33.0376 26.0519 32.9504 25.7606 32.9504 25.3606V18.4041C32.9504 17.9962 33.0399 17.7025 33.2187 17.5237C33.3976 17.3448 33.6868 17.2554 34.0864 17.2554H37.085C37.5268 17.2554 37.9097 17.2828 38.2339 17.3374C38.5582 17.3922 38.8485 17.4974 39.1051 17.6531C39.3239 17.7834 39.5176 17.9488 39.6858 18.1486C39.854 18.3486 39.9827 18.5695 40.0709 18.8113C40.1592 19.0534 40.2034 19.3091 40.2034 19.5784C40.2034 20.5043 39.7406 21.1817 38.8147 21.611C40.031 21.9983 40.6391 22.7516 40.6391 23.8709C40.6391 24.3884 40.5063 24.8546 40.2414 25.2691C39.9762 25.6837 39.6184 25.9899 39.1682 26.1876C38.8862 26.3056 38.5624 26.3887 38.1962 26.4369C37.8301 26.4854 37.4028 26.5096 36.9145 26.5096ZM34.8251 18.6631V21.0556H36.5423C37.0092 21.0556 37.37 21.0112 37.6246 20.9229C37.8792 20.8345 38.0741 20.6662 38.2088 20.4179C38.3138 20.2412 38.3664 20.0434 38.3664 19.8246C38.3664 19.3575 38.2001 19.0471 37.8678 18.8934C37.5352 18.7398 37.0283 18.6631 36.3467 18.6631H34.8251ZM36.776 22.4001H34.8251V25.1018H36.8387C38.1057 25.1018 38.7389 24.6453 38.7389 23.7319C38.7389 23.265 38.5749 22.9263 38.2465 22.7156C37.9184 22.5054 37.4279 22.4001 36.776 22.4001Z" fill="black"/>
                                <path d="M24.5279 49.4157C24.0975 49.4157 23.7485 49.0667 23.7485 48.6363V1.27844C23.7485 0.848008 24.0975 0.499023 24.5279 0.499023C24.9584 0.499023 25.3074 0.848008 25.3074 1.27844V48.6363C25.3074 49.0667 24.9584 49.4157 24.5279 49.4157Z" fill="#342C37"/>
                            </svg>