<svg width="61" height="54" viewBox="0 0 61 54" fill="none" xmlns="http://www.w3.org/2000/svg">
                                <path d="M0.977051 27.4736C0.977051 34.7943 3.99143 41.3861 8.79455 46.1561L0.977051 53.9736H20.8521V34.0986L13.4321 41.5186C9.85455 37.908 7.60205 32.9724 7.60205 27.4736C7.60205 18.828 13.1339 11.4743 20.8521 8.75801V1.83488C9.42393 4.78301 0.977051 15.118 0.977051 27.4736ZM27.4771 44.0361H34.1021V37.4111H27.4771V44.0361ZM60.6021 0.973633H40.7271V20.8486L48.1471 13.4286C51.7246 17.0393 53.9771 21.9749 53.9771 27.4736C53.9771 36.1193 48.4452 43.473 40.7271 46.1893V53.1124C52.1552 50.1643 60.6021 39.8293 60.6021 27.4736C60.6021 20.153 57.5877 13.5611 52.7846 8.79113L60.6021 0.973633ZM27.4771 30.7861H34.1021V10.9111H27.4771V30.7861Z" fill="url(#paint0_linear_30_83)"/>
                                <defs>
                                <linearGradient id="paint0_linear_30_83" x1="30.7896" y1="0.973633" x2="30.7896" y2="53.9736" gradientUnits="userSpaceOnUse">
                                <stop stop-color="#FD4985"/>
                                <stop offset="1" stop-color="#FF978B"/>
                                </linearGradient>
                                </defs>
                            </svg>
                                 