<svg width="112" height="86" viewBox="0 0 112 86" fill="none" xmlns="http://www.w3.org/2000/svg">
<path d="M100.848 24.3316C99.6632 19.8712 96.173 16.3586 91.7414 15.1662C83.709 13 51.5 13 51.5 13C51.5 13 19.291 13 11.2586 15.1662C6.82697 16.3584 3.33684 19.8712 2.15234 24.3316C0 32.4163 0 49.2842 0 49.2842C0 49.2842 0 66.152 2.15234 74.2367C3.33684 78.6971 6.82697 82.2098 11.2586 83.4021C19.291 85.5683 51.5 85.5683 51.5 85.5683C51.5 85.5683 83.709 85.5683 91.7414 83.4021C96.173 82.2098 99.6632 78.6971 100.848 74.2367C103 66.152 103 49.2842 103 49.2842C103 49.2842 103 32.4163 100.848 24.3316Z" fill="#FF0000"/>
<path d="M40.9658 64.5989L67.8862 49.2845L40.9658 33.9692V64.5989Z" fill="white"/>
<path d="M89.954 43.908C102.079 43.908 111.908 34.0788 111.908 21.954C111.908 9.82913 102.079 0 89.954 0C77.8291 0 68 9.82913 68 21.954C68 34.0788 77.8291 43.908 89.954 43.908Z" fill="url(#paint0_linear_57_305)"/>
<path d="M96.3551 10.3358L89.9539 16.737L83.5525 10.3356C81.8883 8.67162 79.7438 8.85612 78.0796 10.5201C76.4155 12.1843 76.6 14.5133 78.2641 16.1774L84.481 22.3943L78.2641 28.4267C76.6 30.0909 76.2312 32.6044 77.8953 34.2684L87.4092 43.76C88.2444 43.8564 89.0931 43.9076 89.9539 43.9076C102.079 43.9076 111.908 34.0785 111.908 21.9536C111.908 21.2798 111.876 20.6135 111.816 19.9551L102.012 10.1511C100.348 8.48731 98.0193 8.67181 96.3551 10.3358Z" fill="url(#paint1_linear_57_305)"/>
<path d="M95.98 22.2103L102.012 16.1779C103.677 14.5138 103.677 11.816 102.012 10.1518C100.348 8.48781 97.6505 8.48781 95.9863 10.1518L89.9539 16.1842L83.9215 10.1518C82.2573 8.48781 79.5595 8.48781 77.8953 10.1518C76.2312 11.816 76.2312 14.5138 77.8953 16.1779L83.9277 22.2103L77.8953 28.2427C76.2312 29.9069 76.2312 32.6047 77.8953 34.2689C78.7273 35.1009 79.8179 35.5169 80.9083 35.5169C81.9987 35.5169 83.0893 35.1009 83.9213 34.2689L89.9539 28.2365L95.9863 34.2689C96.8183 35.1009 97.9089 35.5169 98.9994 35.5169C100.09 35.5169 101.18 35.1009 102.012 34.2689C103.677 32.6047 103.677 29.9069 102.012 28.2427L95.98 22.2103Z" fill="url(#paint2_linear_57_305)"/>
<defs>
<linearGradient id="paint0_linear_57_305" x1="79.7428" y1="11.7428" x2="100.904" y2="32.9033" gradientUnits="userSpaceOnUse">
<stop stop-color="#FF637B"/>
<stop offset="1" stop-color="#E63950"/>
</linearGradient>
<linearGradient id="paint1_linear_57_305" x1="104.662" y1="36.9183" x2="88.9731" y2="21.2291" gradientUnits="userSpaceOnUse">
<stop stop-color="#E63950" stop-opacity="0"/>
<stop offset="0.0467" stop-color="#E4354B" stop-opacity="0.047"/>
<stop offset="0.4669" stop-color="#D31822" stop-opacity="0.467"/>
<stop offset="0.7991" stop-color="#C90709" stop-opacity="0.799"/>
<stop offset="1" stop-color="#C50000"/>
</linearGradient>
<linearGradient id="paint2_linear_57_305" x1="84.949" y1="17.2055" x2="94.2313" y2="26.4877" gradientUnits="userSpaceOnUse">
<stop stop-color="#EDF5FF"/>
<stop offset="1" stop-color="#D5E8FE"/>
</linearGradient>
</defs>
</svg>
